<?xml version="1.0" standalone="no"?>
<!DOCTYPE svg PUBLIC "-//W3C//DTD SVG 20010904//EN"
 "http://www.w3.org/TR/2001/REC-SVG-20010904/DTD/svg10.dtd">
<svg version="1.0" xmlns="http://www.w3.org/2000/svg"
 width="622.000000pt" height="192.000000pt" viewBox="0 0 622.000000 192.000000"
 preserveAspectRatio="xMidYMid meet">

<g transform="translate(0.000000,192.000000) scale(0.100000,-0.100000)"
fill="#000000" stroke="none">
<path d="M775 1258 c-121 -16 -227 -93 -282 -206 -37 -75 -45 -229 -17 -318
36 -115 133 -208 249 -239 92 -25 221 -17 296 19 65 30 141 106 169 169 31 67
32 67 -82 67 l-103 0 -28 -35 c-90 -112 -267 -71 -316 74 -14 44 -14 118 0
162 49 145 226 186 316 74 l28 -35 104 0 103 0 -7 28 c-6 26 -42 91 -67 123
-7 8 -35 32 -61 52 -75 57 -184 81 -302 65z"/>
<path d="M1993 1100 c-94 -20 -179 -87 -216 -169 -28 -63 -34 -172 -13 -244
44 -150 203 -240 369 -207 111 22 175 69 225 164 23 45 26 63 27 146 0 109
-20 165 -83 227 -69 70 -203 105 -309 83z m153 -193 c90 -82 49 -249 -63 -264
-81 -11 -136 50 -136 147 0 130 113 197 199 117z"/>
<path d="M3413 1100 c-93 -19 -165 -77 -205 -165 -33 -72 -33 -218 0 -290 71
-154 264 -217 427 -139 47 22 104 80 126 128 34 74 32 76 -76 76 l-96 0 -30
-35 c-61 -69 -155 -35 -179 65 -36 149 83 259 177 165 l35 -35 95 0 96 0 -7
32 c-9 46 -51 114 -89 142 -65 49 -187 74 -274 56z"/>
<path d="M4083 1100 c-140 -29 -229 -134 -240 -283 -10 -135 41 -241 143 -299
133 -74 309 -53 408 48 61 63 80 116 81 224 0 109 -20 165 -83 227 -69 70
-203 105 -309 83z m159 -197 c81 -81 41 -242 -65 -260 -83 -13 -140 47 -140
147 0 97 51 154 132 146 31 -3 52 -12 73 -33z"/>
<path d="M5231 1100 c-51 -11 -116 -47 -153 -87 -94 -99 -103 -304 -18 -422
85 -116 262 -151 406 -80 51 26 84 59 113 114 34 64 33 65 -79 65 -81 0 -102
-3 -107 -15 -7 -21 -55 -45 -88 -45 -41 0 -81 26 -99 64 -9 19 -16 37 -16 40
0 3 96 7 213 8 l212 3 -1 71 c-2 119 -58 211 -157 258 -59 28 -159 40 -226 26z
m139 -165 c31 -16 50 -43 50 -69 0 -14 -17 -16 -110 -16 -98 0 -110 2 -110 18
0 20 27 55 55 70 29 16 81 14 115 -3z"/>
<path d="M1320 790 l0 -310 94 0 95 0 3 180 3 180 27 27 c23 23 38 28 93 31
l65 4 0 99 0 99 -30 0 c-39 0 -85 -23 -127 -63 l-33 -31 0 47 0 47 -95 0 -95
0 0 -310z"/>
<path d="M2480 790 l0 -310 95 0 95 0 0 185 c0 199 6 227 52 259 29 21 97 20
127 0 43 -31 51 -70 51 -264 l0 -180 95 0 95 0 0 209 c0 244 -9 288 -73 351
-47 48 -97 63 -189 58 -56 -3 -75 -9 -113 -36 l-45 -32 0 35 0 35 -95 0 -95 0
0 -310z"/>
<path d="M4570 790 l0 -310 94 0 95 0 3 180 3 180 27 27 c23 23 38 28 93 31
l65 4 0 99 0 99 -30 0 c-39 0 -85 -23 -127 -63 l-33 -31 0 47 0 47 -95 0 -95
0 0 -310z"/>
</g>
</svg>
