<?xml version="1.0" encoding="utf-8"?>
<!-- Generator: Adobe Illustrator 22.1.0, SVG Export Plug-In . SVG Version: 6.00 Build 0)  -->
<svg version="1.1" id="Layer_1" xmlns="http://www.w3.org/2000/svg" xmlns:xlink="http://www.w3.org/1999/xlink" x="0px" y="0px"
	 viewBox="0 0 1080 1080" style="enable-background:new 0 0 1080 1080;" xml:space="preserve">
<style type="text/css">
	.st0{stroke:#FFFFFF;stroke-width:0.5;stroke-miterlimit:10;}
	.st1{fill:#578CFF;}
	.st2{stroke:#FFFFFF;stroke-miterlimit:10;}
	.st3{fill:#FFFFFF;}
	.st4{fill:#FFFFFF;stroke:#000000;stroke-miterlimit:10;}
</style>
<path d="M-3305.8-1694.2c1.7-3.2,4-5.7,6.9-7.6c3-1.8,6.3-2.7,10-2.7c4.9,0,8.9,1.1,12.1,3.4c3.2,2.3,5.5,5.4,7,9.4h-1.2
	c-1.3-3.5-3.4-6.3-6.5-8.5c-3-2.1-6.8-3.2-11.4-3.2c-3.4,0-6.5,0.8-9.2,2.5c-2.8,1.6-4.9,4-6.5,7c-1.6,3.1-2.4,6.6-2.4,10.8
	c0,4.1,0.8,7.6,2.4,10.7c1.6,3,3.8,5.4,6.6,7c2.8,1.6,5.9,2.5,9.2,2.5c4.5,0,8.3-1.1,11.4-3.2c3-2.1,5.2-4.9,6.5-8.4h1.2
	c-1.5,4-3.8,7.1-7,9.3c-3.2,2.2-7.2,3.3-12.1,3.3c-3.7,0-7-0.9-10-2.7c-3-1.8-5.3-4.3-6.9-7.5c-1.7-3.2-2.5-6.9-2.5-11
	C-3308.3-1687.3-3307.5-1690.9-3305.8-1694.2z"/>
<path d="M-3238.5-1662.3l-11.1-18.2h-1.1h-9.4v18.2h-1.2v-41.7h10.4c4.6,0,8,1,10.2,3.1c2.2,2.1,3.3,5,3.3,8.6c0,3.4-0.9,6-2.8,8.1
	c-1.9,2-4.6,3.2-8.1,3.6l11.3,18.3H-3238.5z M-3250.8-1681.6c4.1,0,7.1-1,9.2-2.9c2-1.9,3.1-4.5,3.1-7.8c0-7-4.1-10.5-12.3-10.5
	h-9.2v21.2H-3250.8z"/>
<path d="M-3221.5-1664.5c-3-1.8-5.4-4.3-7.1-7.6c-1.7-3.2-2.5-6.9-2.5-11c0-4.1,0.8-7.8,2.5-11c1.7-3.2,4.1-5.8,7.1-7.6
	c3-1.8,6.4-2.7,10.3-2.7c3.8,0,7.3,0.9,10.3,2.7c3,1.8,5.4,4.3,7.1,7.6c1.7,3.2,2.5,6.9,2.5,11c0,4.1-0.8,7.8-2.5,11
	c-1.7,3.2-4.1,5.8-7.1,7.6c-3,1.8-6.4,2.7-10.3,2.7C-3215-1661.9-3218.4-1662.8-3221.5-1664.5z M-3201.7-1665.4c2.8-1.6,5.1-4,6.7-7
	c1.6-3.1,2.5-6.6,2.5-10.7c0-4.1-0.8-7.6-2.5-10.7c-1.6-3.1-3.9-5.4-6.7-7c-2.8-1.6-6-2.5-9.5-2.5c-3.5,0-6.6,0.8-9.5,2.5
	c-2.8,1.6-5.1,4-6.7,7c-1.6,3.1-2.5,6.6-2.5,10.7c0,4.1,0.8,7.6,2.5,10.7c1.6,3.1,3.9,5.4,6.7,7c2.8,1.6,6,2.5,9.5,2.5
	C-3207.7-1662.9-3204.5-1663.7-3201.7-1665.4z"/>
<path d="M-3154.4-1662.3h-1.2l-25.9-39.5v39.5h-1.2v-41.6h1.2l25.9,39.5v-39.5h1.2V-1662.3z"/>
<path d="M-3090.7-1664.5c-3-1.8-5.4-4.3-7.1-7.6c-1.7-3.2-2.5-6.9-2.5-11c0-4.1,0.8-7.8,2.5-11c1.7-3.2,4.1-5.8,7.1-7.6
	c3-1.8,6.4-2.7,10.3-2.7c3.8,0,7.3,0.9,10.3,2.7c3,1.8,5.4,4.3,7.1,7.6c1.7,3.2,2.5,6.9,2.5,11c0,4.1-0.8,7.8-2.5,11
	c-1.7,3.2-4.1,5.8-7.1,7.6c-3,1.8-6.4,2.7-10.3,2.7C-3084.2-1661.9-3087.6-1662.8-3090.7-1664.5z M-3070.9-1665.4
	c2.8-1.6,5.1-4,6.7-7c1.6-3.1,2.5-6.6,2.5-10.7c0-4.1-0.8-7.6-2.5-10.7c-1.6-3.1-3.9-5.4-6.7-7c-2.8-1.6-6-2.5-9.5-2.5
	c-3.5,0-6.6,0.8-9.5,2.5c-2.8,1.6-5.1,4-6.7,7c-1.6,3.1-2.5,6.6-2.5,10.7c0,4.1,0.8,7.6,2.5,10.7c1.6,3.1,3.9,5.4,6.7,7
	c2.8,1.6,6,2.5,9.5,2.5C-3076.9-1662.9-3073.7-1663.7-3070.9-1665.4z"/>
<path d="M-3029.1-1662.3l-11.1-18.2h-1.1h-9.4v18.2h-1.2v-41.7h10.4c4.6,0,8,1,10.2,3.1c2.2,2.1,3.3,5,3.3,8.6c0,3.4-0.9,6-2.8,8.1
	c-1.9,2-4.6,3.2-8.1,3.6l11.3,18.3H-3029.1z M-3041.3-1681.6c4.1,0,7.1-1,9.2-2.9c2-1.9,3.1-4.5,3.1-7.8c0-7-4.1-10.5-12.3-10.5
	h-9.2v21.2H-3041.3z"/>
<path d="M-3019-1703v19.3h17.4v1.1h-17.4v19.3h19.2v1.1h-20.4v-41.7h20.4v1.1H-3019z"/>
<g>
	<path class="st0" d="M-3112.6-1692l-0.1-0.1c-0.6-0.5-1.2-0.9-1.7-1.3l0,0l0,0c-6.1-3.8-12-1.4-12-1.4c-7.8,2.8-8.1,11.4-8.1,11.4
		s11.8-3.6,11.9-3.7c0.2,0,0.1,0.2,0.1,0.2l-5,2.4l-29.8,12.7l-10.1,3.9l24.4-11.5l-0.1-0.4c-1.4-8.2,2.8-14.3,2.8-14.3
		c6.6-11.3,18.7-10.6,18.7-10.6c9,0.1,14.1,5,16,7.3l0,0c0.5,0.6,0.8,1,0.8,1.1l0,0l0,0"/>
	<path class="st0" d="M-3103.1-1672.8L-3103.1-1672.8C-3103.1-1672.8-3103.1-1672.8-3103.1-1672.8
		C-3103.1-1672.8-3103.1-1672.8-3103.1-1672.8C-3103.1-1672.7-3103.1-1672.7-3103.1-1672.8c0,0.1,0,0.1,0,0.1c-0.1,0.2-0.6,1-1.4,2
		c0,0-0.1,0.1-0.1,0.1c-0.4,0.5-0.9,1.1-1.4,1.6c0,0,0,0,0,0c0,0,0,0,0,0c-0.9,1-2,2-3.2,3c-0.2,0.1-0.3,0.2-0.5,0.3
		c-0.1,0-0.1,0.1-0.2,0.1c-0.1,0.1-0.2,0.1-0.3,0.2c0,0-0.1,0-0.1,0.1c-0.2,0.2-0.5,0.3-0.8,0.5c-0.1,0.1-0.3,0.2-0.4,0.2
		c0,0,0,0,0,0c0,0-0.1,0.1-0.2,0.1c0,0-0.1,0-0.1,0.1c-0.1,0.1-0.3,0.1-0.4,0.2c0,0-0.1,0-0.1,0.1c0,0,0,0-0.1,0
		c-0.6,0.3-1.2,0.5-1.8,0.7c0,0-0.6,0.3-1.8,0.7c0,0,0,0,0,0c-2.9,0.9-8.8,2-15.8-1.6c0,0-6.9-3.9-9.6-9.7c0,0-11.7,4.1-12.7,3.8
		l5.5-3l14.7-6.6l22.8-9.4l30.7-12l-32.7,14.6l-20,9.1c0,0,3.1,6.4,10.9,6.9c0,0,6.4-0.1,9.9-4.2c0,0,0,0,0,0
		c0.2-0.2,0.4-0.4,0.5-0.7c0,0,0,0,0,0"/>
	<path class="st0" d="M-3114.5-1693.4L-3114.5-1693.4l1.9,1.4c7.4,2.6,7.8-4.2,7.8-4.2l0,0l-0.9-1.1l0,0"/>
	<path class="st0" d="M-3111.7-1675.4C-3111.7-1675.4-3111.7-1675.4-3111.7-1675.4c0,0,1.6-1.2,3.6-1.3c0.1,0,0.1,0,0.2,0
		c0,0,0,0,0,0c0.1,0,0.1,0,0.2,0c1.2,0.1,2.5,0.6,3.6,2.1c0,0.1,0.1,0.1,0.1,0.2c0,0,0.1,0.1,0.1,0.1c0.3,0.4,0.6,0.9,0.8,1.5
		c0,0,0,0,0,0c0,0,0,0,0,0v0c0,0,0,0,0,0c0,0,0,0,0,0c0,0,0,0,0,0c0,0,0,0,0,0c-0.2,0.3-1.1,1.6-1.4,2c0,0-0.1,0.1-0.1,0.1"/>
	<path class="st0" d="M-3116-1662.6C-3116-1662.6-3116-1662.6-3116-1662.6c1.3-0.3,2.8-1,3.7-1.5c0,0,0.1,0,0.1-0.1
		c0.2-0.1,0.4-0.2,0.5-0.3c0.1-0.1,0.2-0.1,0.2-0.1c0,0,0,0,0,0c2.2-1.2,4.1-2.9,5.5-4.5"/>
	<path class="st0" d="M-3112.3-1674.7C-3112.3-1674.7-3112.3-1674.7-3112.3-1674.7c0.1-0.1,1-2,4.2-2c0.1,0,0.1,0,0.2,0c0,0,0,0,0,0
		c1.8,0,3,1.1,3.8,2.1c0,0.1,0.1,0.1,0.1,0.2c0.5,0.7,0.8,1.4,0.9,1.6c0,0,0,0,0,0.1v0c0,0,0,0,0,0c0,0,0,0,0,0.1c0,0,0,0,0,0
		c0,0,0,0,0,0c-0.2,0.5-1.2,2.3-2.8,3.7c0,0,0,0,0,0"/>
</g>
<path d="M-2884-1692.4c1.7-3.2,4-5.7,6.9-7.6c3-1.8,6.3-2.7,10-2.7c4.9,0,8.9,1.1,12.1,3.4c3.2,2.3,5.5,5.4,7,9.4h-1.2
	c-1.3-3.5-3.4-6.3-6.5-8.5c-3-2.1-6.8-3.2-11.4-3.2c-3.4,0-6.5,0.8-9.2,2.5c-2.8,1.6-4.9,4-6.5,7c-1.6,3.1-2.4,6.6-2.4,10.8
	c0,4.1,0.8,7.6,2.4,10.7c1.6,3,3.8,5.4,6.6,7c2.8,1.6,5.9,2.5,9.2,2.5c4.5,0,8.3-1.1,11.4-3.2c3-2.1,5.2-4.9,6.5-8.4h1.2
	c-1.5,4-3.8,7.1-7,9.3c-3.2,2.2-7.2,3.3-12.1,3.3c-3.7,0-7-0.9-10-2.7c-3-1.8-5.3-4.3-6.9-7.5c-1.7-3.2-2.5-6.9-2.5-11
	C-2886.5-1685.5-2885.7-1689.2-2884-1692.4z"/>
<path d="M-2816.7-1660.6l-11.1-18.2h-1.1h-9.4v18.2h-1.2v-41.7h10.4c4.6,0,8,1,10.2,3.1c2.2,2.1,3.3,5,3.3,8.6c0,3.4-0.9,6-2.8,8.1
	c-1.9,2-4.6,3.2-8.1,3.6l11.3,18.3H-2816.7z M-2828.9-1679.9c4.1,0,7.1-1,9.2-2.9c2-1.9,3.1-4.5,3.1-7.8c0-7-4.1-10.5-12.3-10.5
	h-9.2v21.2H-2828.9z"/>
<path d="M-2799.6-1662.8c-3-1.8-5.4-4.3-7.1-7.6c-1.7-3.2-2.5-6.9-2.5-11c0-4.1,0.8-7.8,2.5-11c1.7-3.2,4.1-5.8,7.1-7.6
	c3-1.8,6.4-2.7,10.3-2.7c3.8,0,7.3,0.9,10.3,2.7c3,1.8,5.4,4.3,7.1,7.6c1.7,3.2,2.5,6.9,2.5,11c0,4.1-0.8,7.8-2.5,11
	c-1.7,3.2-4.1,5.8-7.1,7.6c-3,1.8-6.4,2.7-10.3,2.7C-2793.2-1660.1-2796.6-1661-2799.6-1662.8z M-2779.9-1663.6c2.8-1.6,5.1-4,6.7-7
	c1.6-3.1,2.5-6.6,2.5-10.7c0-4.1-0.8-7.6-2.5-10.7c-1.6-3.1-3.9-5.4-6.7-7c-2.8-1.6-6-2.5-9.5-2.5c-3.5,0-6.6,0.8-9.5,2.5
	c-2.8,1.6-5.1,4-6.7,7c-1.6,3.1-2.5,6.6-2.5,10.7c0,4.1,0.8,7.6,2.5,10.7c1.6,3.1,3.9,5.4,6.7,7c2.8,1.6,6,2.5,9.5,2.5
	C-2785.9-1661.2-2782.7-1662-2779.9-1663.6z"/>
<path d="M-2732.6-1660.6h-1.2l-25.9-39.5v39.5h-1.2v-41.6h1.2l25.9,39.5v-39.5h1.2V-1660.6z"/>
<path d="M-2668.8-1662.8c-3-1.8-5.4-4.3-7.1-7.6c-1.7-3.2-2.5-6.9-2.5-11c0-4.1,0.8-7.8,2.5-11c1.7-3.2,4.1-5.8,7.1-7.6
	c3-1.8,6.4-2.7,10.3-2.7c3.8,0,7.3,0.9,10.3,2.7c3,1.8,5.4,4.3,7.1,7.6c1.7,3.2,2.5,6.9,2.5,11c0,4.1-0.8,7.8-2.5,11
	c-1.7,3.2-4.1,5.8-7.1,7.6c-3,1.8-6.4,2.7-10.3,2.7C-2662.4-1660.1-2665.8-1661-2668.8-1662.8z M-2649.1-1663.6c2.8-1.6,5.1-4,6.7-7
	c1.6-3.1,2.5-6.6,2.5-10.7c0-4.1-0.8-7.6-2.5-10.7c-1.6-3.1-3.9-5.4-6.7-7c-2.8-1.6-6-2.5-9.5-2.5c-3.5,0-6.6,0.8-9.5,2.5
	c-2.8,1.6-5.1,4-6.7,7c-1.6,3.1-2.5,6.6-2.5,10.7c0,4.1,0.8,7.6,2.5,10.7c1.6,3.1,3.9,5.4,6.7,7c2.8,1.6,6,2.5,9.5,2.5
	C-2655.1-1661.2-2651.9-1662-2649.1-1663.6z"/>
<path d="M-2607.3-1660.6l-11.1-18.2h-1.1h-9.4v18.2h-1.2v-41.7h10.4c4.6,0,8,1,10.2,3.1c2.2,2.1,3.3,5,3.3,8.6c0,3.4-0.9,6-2.8,8.1
	s-4.6,3.2-8.1,3.6l11.3,18.3H-2607.3z M-2619.5-1679.9c4.1,0,7.1-1,9.2-2.9c2-1.9,3.1-4.5,3.1-7.8c0-7-4.1-10.5-12.3-10.5h-9.2v21.2
	H-2619.5z"/>
<path d="M-2597.2-1701.2v19.3h17.4v1.1h-17.4v19.3h19.2v1.1h-20.4v-41.7h20.4v1.1H-2597.2z"/>
<g>
	<path class="st1" d="M-2690.8-1690.3l-0.1-0.1c-0.6-0.5-1.2-0.9-1.7-1.3l0,0l0,0c-6.1-3.8-12-1.4-12-1.4
		c-7.8,2.8-8.1,11.4-8.1,11.4s11.8-3.6,11.9-3.7c0.2,0,0.1,0.2,0.1,0.2l-5,2.4l-29.8,12.7l-10.1,3.9l24.4-11.5l-0.1-0.4
		c-1.4-8.2,2.8-14.3,2.8-14.3c6.6-11.3,18.7-10.6,18.7-10.6c9,0.1,14.1,5,16,7.3l0,0c0.5,0.6,0.8,1,0.8,1.1l0,0l0,0"/>
	<path class="st1" d="M-2681.3-1671.1L-2681.3-1671.1C-2681.3-1671-2681.3-1671-2681.3-1671.1
		C-2681.3-1671-2681.3-1671-2681.3-1671.1C-2681.3-1671-2681.3-1671-2681.3-1671.1c0,0.1,0,0.1,0,0.1c-0.1,0.2-0.6,1-1.4,2
		c0,0-0.1,0.1-0.1,0.1c-0.4,0.5-0.9,1.1-1.4,1.6c0,0,0,0,0,0c0,0,0,0,0,0c-0.9,1-2,2-3.2,3c-0.2,0.1-0.3,0.2-0.5,0.3
		c-0.1,0-0.1,0.1-0.2,0.1c-0.1,0.1-0.2,0.1-0.3,0.2c0,0-0.1,0-0.1,0.1c-0.2,0.2-0.5,0.3-0.8,0.5c-0.1,0.1-0.3,0.2-0.4,0.2
		c0,0,0,0,0,0c0,0-0.1,0.1-0.2,0.1c0,0-0.1,0-0.1,0.1c-0.1,0.1-0.3,0.1-0.4,0.2c0,0-0.1,0-0.1,0.1c0,0,0,0-0.1,0
		c-0.6,0.3-1.2,0.5-1.8,0.7c0,0-0.6,0.3-1.8,0.7c0,0,0,0,0,0c-2.9,0.9-8.8,2-15.8-1.6c0,0-6.9-3.9-9.6-9.7c0,0-11.7,4.1-12.7,3.8
		l5.5-3l14.7-6.6l22.8-9.4l30.7-12l-32.7,14.6l-20,9.1c0,0,3.1,6.4,10.9,6.9c0,0,6.4-0.1,9.9-4.2c0,0,0,0,0,0
		c0.2-0.2,0.4-0.4,0.5-0.7c0,0,0,0,0,0"/>
	<path class="st1" d="M-2692.7-1691.7L-2692.7-1691.7l1.9,1.4c7.4,2.6,7.8-4.2,7.8-4.2l0,0l-0.9-1.1l0,0"/>
	<path class="st1" d="M-2689.9-1673.7C-2689.9-1673.7-2689.9-1673.7-2689.9-1673.7c0,0,1.6-1.2,3.6-1.3c0.1,0,0.1,0,0.2,0
		c0,0,0,0,0,0c0.1,0,0.1,0,0.2,0c1.2,0.1,2.5,0.6,3.6,2.1c0,0.1,0.1,0.1,0.1,0.2c0,0,0.1,0.1,0.1,0.1c0.3,0.4,0.6,0.9,0.8,1.5
		c0,0,0,0,0,0c0,0,0,0,0,0v0c0,0,0,0,0,0c0,0,0,0,0,0c0,0,0,0,0,0c0,0,0,0,0,0c-0.2,0.3-1.1,1.6-1.4,2c0,0-0.1,0.1-0.1,0.1"/>
	<path class="st1" d="M-2694.2-1660.9C-2694.2-1660.9-2694.2-1660.9-2694.2-1660.9c1.3-0.3,2.8-1,3.7-1.5c0,0,0.1,0,0.1-0.1
		c0.2-0.1,0.4-0.2,0.5-0.3c0.1-0.1,0.2-0.1,0.2-0.1c0,0,0,0,0,0c2.2-1.2,4.1-2.9,5.5-4.5"/>
	<path class="st1" d="M-2690.5-1673C-2690.5-1673-2690.5-1673-2690.5-1673c0.1-0.1,1-2,4.2-2c0.1,0,0.1,0,0.2,0c0,0,0,0,0,0
		c1.8,0,3,1.1,3.8,2.1c0,0.1,0.1,0.1,0.1,0.2c0.5,0.7,0.8,1.4,0.9,1.6c0,0,0,0,0,0.1v0c0,0,0,0,0,0c0,0,0,0,0,0.1c0,0,0,0,0,0
		c0,0,0,0,0,0c-0.2,0.5-1.2,2.3-2.8,3.7c0,0,0,0,0,0"/>
</g>
<text transform="matrix(1 0 0 1 -2330.1758 -1430.2878)" style="font-family:'Poppins-Regular'; font-size:42.8885px;">CRONCORE</text>
<text transform="matrix(1 0 0 1 -2330.1758 -1331.2878)" style="font-family:'Poppins-Regular'; font-size:42.8885px;">CRONCORE</text>
<path d="M-2317.6-1666.1c1.1-2,2.7-3.6,4.7-4.7c2-1.1,4.2-1.7,6.6-1.7c2.8,0,5.3,0.7,7.4,2c2.1,1.4,3.6,3.3,4.6,5.8h-4.1
	c-0.7-1.5-1.8-2.7-3.1-3.5c-1.4-0.8-3-1.2-4.9-1.2c-1.8,0-3.4,0.4-4.9,1.2c-1.4,0.8-2.6,2-3.4,3.6c-0.8,1.6-1.2,3.3-1.2,5.4
	c0,2,0.4,3.8,1.2,5.4c0.8,1.5,1.9,2.7,3.4,3.6c1.4,0.8,3.1,1.2,4.9,1.2c1.9,0,3.5-0.4,4.9-1.2s2.4-2,3.1-3.5h4.1
	c-1,2.5-2.5,4.4-4.6,5.8c-2.1,1.4-4.6,2-7.4,2c-2.4,0-4.6-0.6-6.6-1.7c-2-1.1-3.5-2.7-4.7-4.7c-1.1-2-1.7-4.3-1.7-6.8
	C-2319.3-1661.8-2318.7-1664.1-2317.6-1666.1z"/>
<rect x="1303.5" y="-1290.5" class="st2" width="1090" height="1090"/>
<rect x="1298.5" y="-28.5" class="st2" width="1090" height="1090"/>
<path d="M-2275.6-1646.3l-6.2-10.6h-4.1v10.6h-3.4v-26h8.4c2,0,3.6,0.3,5,1c1.4,0.7,2.4,1.6,3,2.7c0.7,1.1,1,2.4,1,3.9
	c0,1.8-0.5,3.4-1.5,4.7c-1,1.4-2.6,2.3-4.6,2.7l6.5,10.9H-2275.6z M-2285.9-1659.6h5c1.8,0,3.2-0.5,4.1-1.4c0.9-0.9,1.4-2.1,1.4-3.6
	c0-1.6-0.4-2.8-1.3-3.7c-0.9-0.9-2.3-1.3-4.2-1.3h-5V-1659.6z"/>
<path d="M-2261.5-1647.7c-2-1.1-3.6-2.7-4.7-4.7c-1.2-2-1.7-4.3-1.7-6.8c0-2.5,0.6-4.8,1.7-6.8c1.2-2,2.7-3.6,4.7-4.7
	c2-1.1,4.2-1.7,6.6-1.7c2.4,0,4.6,0.6,6.6,1.7c2,1.1,3.6,2.7,4.7,4.7c1.1,2,1.7,4.3,1.7,6.9c0,2.6-0.6,4.8-1.7,6.9
	c-1.1,2-2.7,3.6-4.7,4.7c-2,1.1-4.2,1.7-6.6,1.7C-2257.3-1646-2259.5-1646.6-2261.5-1647.7z M-2250-1650.3c1.5-0.8,2.6-2,3.4-3.6
	c0.8-1.5,1.2-3.3,1.2-5.4c0-2-0.4-3.8-1.2-5.4c-0.8-1.6-2-2.7-3.4-3.6c-1.5-0.8-3.1-1.2-4.9-1.2c-1.8,0-3.4,0.4-4.9,1.2
	c-1.5,0.8-2.6,2-3.4,3.6s-1.2,3.3-1.2,5.4c0,2,0.4,3.8,1.2,5.4c0.8,1.5,2,2.7,3.4,3.6c1.5,0.8,3.1,1.3,4.9,1.3
	C-2253.1-1649.1-2251.4-1649.5-2250-1650.3z"/>
<path d="M-2217-1646.3h-3.4l-13.6-20.7v20.7h-3.4v-26h3.4l13.6,20.6v-20.6h3.4V-1646.3z"/>
<path d="M-2159.6-1647.7c-2-1.1-3.6-2.7-4.7-4.7c-1.2-2-1.7-4.3-1.7-6.8c0-2.5,0.6-4.8,1.7-6.8c1.2-2,2.7-3.6,4.7-4.7
	c2-1.1,4.2-1.7,6.6-1.7c2.4,0,4.6,0.6,6.6,1.7c2,1.1,3.6,2.7,4.7,4.7c1.1,2,1.7,4.3,1.7,6.9c0,2.6-0.6,4.8-1.7,6.9
	c-1.1,2-2.7,3.6-4.7,4.7c-2,1.1-4.2,1.7-6.6,1.7C-2155.4-1646-2157.6-1646.6-2159.6-1647.7z M-2148.1-1650.3c1.5-0.8,2.6-2,3.4-3.6
	c0.8-1.5,1.2-3.3,1.2-5.4c0-2-0.4-3.8-1.2-5.4s-2-2.7-3.4-3.6c-1.5-0.8-3.1-1.2-4.9-1.2c-1.8,0-3.4,0.4-4.9,1.2
	c-1.5,0.8-2.6,2-3.4,3.6s-1.2,3.3-1.2,5.4c0,2,0.4,3.8,1.2,5.4c0.8,1.5,2,2.7,3.4,3.6c1.5,0.8,3.1,1.3,4.9,1.3
	C-2151.2-1649.1-2149.5-1649.5-2148.1-1650.3z"/>
<path d="M-2121.8-1646.3l-6.2-10.6h-4.1v10.6h-3.4v-26h8.4c2,0,3.6,0.3,5,1c1.4,0.7,2.4,1.6,3,2.7c0.7,1.1,1,2.4,1,3.9
	c0,1.8-0.5,3.4-1.5,4.7c-1,1.4-2.6,2.3-4.6,2.7l6.5,10.9H-2121.8z M-2132.1-1659.6h5c1.8,0,3.2-0.5,4.1-1.4c0.9-0.9,1.4-2.1,1.4-3.6
	c0-1.6-0.4-2.8-1.3-3.7c-0.9-0.9-2.3-1.3-4.2-1.3h-5V-1659.6z"/>
<g>
	<path class="st1" d="M-2177.8-1668.3l-0.1-0.1c-0.6-0.5-1.2-0.9-1.7-1.3l0,0l0,0c-6.1-3.8-12-1.4-12-1.4
		c-7.8,2.8-8.1,11.4-8.1,11.4s11.8-3.6,11.9-3.7c0.2,0,0.1,0.2,0.1,0.2l-5,2.4l-29.8,12.7l-10.1,3.9l24.4-11.5l-0.1-0.4
		c-1.4-8.2,2.8-14.3,2.8-14.3c6.6-11.3,18.7-10.6,18.7-10.6c9,0.1,14.1,5,16,7.3l0,0c0.5,0.6,0.8,1,0.8,1.1l0,0l0,0"/>
	<path class="st1" d="M-2168.3-1649.1L-2168.3-1649.1C-2168.3-1649-2168.3-1649-2168.3-1649.1
		C-2168.3-1649-2168.3-1649-2168.3-1649.1C-2168.3-1649-2168.3-1649-2168.3-1649.1c0,0.1,0,0.1,0,0.1c-0.1,0.2-0.6,1-1.4,2
		c0,0-0.1,0.1-0.1,0.1c-0.4,0.5-0.9,1.1-1.4,1.6c0,0,0,0,0,0c0,0,0,0,0,0c-0.9,1-2,2-3.2,3c-0.2,0.1-0.3,0.2-0.5,0.3
		c-0.1,0-0.1,0.1-0.2,0.1c-0.1,0.1-0.2,0.1-0.3,0.2c0,0-0.1,0-0.1,0.1c-0.2,0.2-0.5,0.3-0.8,0.5c-0.1,0.1-0.3,0.2-0.4,0.2
		c0,0,0,0,0,0c0,0-0.1,0.1-0.2,0.1c0,0-0.1,0-0.1,0.1c-0.1,0.1-0.3,0.1-0.4,0.2c0,0-0.1,0-0.1,0.1c0,0,0,0-0.1,0
		c-0.6,0.3-1.2,0.5-1.8,0.7c0,0-0.6,0.3-1.8,0.7c0,0,0,0,0,0c-2.9,0.9-8.8,2-15.8-1.6c0,0-6.9-3.9-9.6-9.7c0,0-11.7,4.1-12.7,3.8
		l5.5-3l14.7-6.6l22.8-9.4l30.7-12l-32.7,14.6l-20,9.1c0,0,3.1,6.4,10.9,6.9c0,0,6.4-0.1,9.9-4.2c0,0,0,0,0,0
		c0.2-0.2,0.4-0.4,0.5-0.7c0,0,0,0,0,0"/>
	<path class="st1" d="M-2179.7-1669.7L-2179.7-1669.7l1.9,1.4c7.4,2.6,7.8-4.2,7.8-4.2l0,0l-0.9-1.1l0,0"/>
	<path class="st1" d="M-2176.9-1651.7C-2176.9-1651.7-2176.9-1651.7-2176.9-1651.7c0,0,1.6-1.2,3.6-1.3c0.1,0,0.1,0,0.2,0
		c0,0,0,0,0,0c0.1,0,0.1,0,0.2,0c1.2,0.1,2.5,0.6,3.6,2.1c0,0.1,0.1,0.1,0.1,0.2c0,0,0.1,0.1,0.1,0.1c0.3,0.4,0.6,0.9,0.8,1.5
		c0,0,0,0,0,0c0,0,0,0,0,0v0c0,0,0,0,0,0c0,0,0,0,0,0c0,0,0,0,0,0c0,0,0,0,0,0c-0.2,0.3-1.1,1.6-1.4,2c0,0-0.1,0.1-0.1,0.1"/>
	<path class="st1" d="M-2181.2-1638.9C-2181.2-1638.9-2181.2-1638.9-2181.2-1638.9c1.3-0.3,2.8-1,3.7-1.5c0,0,0.1,0,0.1-0.1
		c0.2-0.1,0.4-0.2,0.5-0.3c0.1-0.1,0.2-0.1,0.2-0.1c0,0,0,0,0,0c2.2-1.2,4.1-2.9,5.5-4.5"/>
	<path class="st1" d="M-2177.5-1651C-2177.5-1651-2177.5-1651-2177.5-1651c0.1-0.1,1-2,4.2-2c0.1,0,0.1,0,0.2,0c0,0,0,0,0,0
		c1.8,0,3,1.1,3.8,2.1c0,0.1,0.1,0.1,0.1,0.2c0.5,0.7,0.8,1.4,0.9,1.6c0,0,0,0,0,0.1v0c0,0,0,0,0,0c0,0,0,0,0,0.1c0,0,0,0,0,0
		c0,0,0,0,0,0c-0.2,0.5-1.2,2.3-2.8,3.7c0,0,0,0,0,0"/>
</g>
<path d="M-2109.4-1669.6v8.9h9.5v2.6h-9.5v9.1h10.6v2.7h-14v-26h14v2.7H-2109.4z"/>
<rect x="1303.5" y="-2574.5" class="st2" width="1080" height="1080"/>
<path d="M-1126.9-2088.4c4.6-8.2,10.9-14.6,18.9-19.2c8-4.6,16.9-6.9,26.6-6.9c11.5,0,21.5,2.8,30,8.3c8.5,5.5,14.8,13.4,18.7,23.5
	h-16.4c-2.9-6.1-7.1-10.9-12.6-14.3c-5.5-3.4-12-5.1-19.7-5.1c-7.3,0-13.9,1.7-19.8,5.1c-5.8,3.4-10.4,8.2-13.7,14.5
	c-3.3,6.3-5,13.5-5,21.8s1.7,15.5,5,21.7c3.3,6.2,7.9,11,13.7,14.4c5.8,3.4,12.4,5.1,19.8,5.1c7.6,0,14.2-1.7,19.7-5
	c5.5-3.3,9.7-8,12.6-14.2h16.4c-3.9,10.1-10.2,17.8-18.7,23.3c-8.5,5.5-18.6,8.2-30,8.2c-9.8,0-18.6-2.3-26.6-6.9
	c-8-4.6-14.3-10.9-18.9-19.1c-4.6-8.1-6.9-17.3-6.9-27.6C-1133.9-2071-1131.5-2080.2-1126.9-2088.4z"/>
<path d="M-956.9-2008.1l-25-43h-16.6v43h-13.7v-105.1h33.9c7.9,0,14.7,1.4,20.1,4.1c5.5,2.7,9.6,6.4,12.3,11
	c2.7,4.6,4.1,9.9,4.1,15.8c0,7.2-2.1,13.6-6.3,19.2c-4.2,5.5-10.4,9.2-18.8,11l26.4,44H-956.9z M-998.6-2062.1h20.2
	c7.4,0,13-1.8,16.7-5.5c3.7-3.7,5.6-8.6,5.6-14.7c0-6.3-1.8-11.3-5.4-14.8c-3.6-3.5-9.3-5.3-16.9-5.3h-20.2V-2062.1z"/>
<path d="M-899.6-2013.9c-8-4.6-14.4-11-19.1-19.2c-4.7-8.2-7-17.4-7-27.7c0-10.3,2.3-19.5,7-27.7c4.7-8.2,11-14.6,19.1-19.2
	c8-4.6,16.9-6.9,26.7-6.9c9.9,0,18.8,2.3,26.8,6.9c8,4.6,14.4,10.9,19,19.1c4.6,8.1,6.9,17.4,6.9,27.8s-2.3,19.6-6.9,27.8
	c-4.6,8.1-11,14.5-19,19.1c-8,4.6-17,6.9-26.8,6.9C-882.7-2007-891.6-2009.3-899.6-2013.9z M-853.1-2024.5
	c5.9-3.4,10.5-8.2,13.9-14.5c3.4-6.2,5.1-13.5,5.1-21.7s-1.7-15.5-5.1-21.8s-8-11.1-13.9-14.5c-5.9-3.4-12.5-5.1-19.8-5.1
	c-7.3,0-14,1.7-19.8,5.1c-5.9,3.4-10.5,8.2-13.9,14.5s-5.1,13.5-5.1,21.8s1.7,15.5,5.1,21.7c3.4,6.2,8,11.1,13.9,14.5
	c5.9,3.4,12.5,5.1,19.8,5.1C-865.6-2019.4-859-2021.1-853.1-2024.5z"/>
<path d="M-719.4-2008.1h-13.7l-55.2-83.7v83.7H-802v-105.3h13.7l55.2,83.6v-83.6h13.7V-2008.1z"/>
<path d="M-472-2013.9c-8-4.6-14.4-11-19.1-19.2c-4.7-8.2-7-17.4-7-27.7c0-10.3,2.3-19.5,7-27.7c4.7-8.2,11-14.6,19.1-19.2
	c8-4.6,16.9-6.9,26.7-6.9c9.9,0,18.8,2.3,26.8,6.9c8,4.6,14.4,10.9,19,19.1c4.6,8.1,6.9,17.4,6.9,27.8s-2.3,19.6-6.9,27.8
	c-4.6,8.1-11,14.5-19,19.1c-8,4.6-17,6.9-26.8,6.9C-455-2007-463.9-2009.3-472-2013.9z M-425.5-2024.5c5.9-3.4,10.5-8.2,13.9-14.5
	c3.4-6.2,5.1-13.5,5.1-21.7s-1.7-15.5-5.1-21.8s-8-11.1-13.9-14.5c-5.9-3.4-12.5-5.1-19.8-5.1c-7.3,0-14,1.7-19.8,5.1
	c-5.9,3.4-10.5,8.2-13.9,14.5c-3.4,6.3-5.1,13.5-5.1,21.8s1.7,15.5,5.1,21.7c3.4,6.2,8,11.1,13.9,14.5c5.9,3.4,12.5,5.1,19.8,5.1
	C-438-2019.4-431.3-2021.1-425.5-2024.5z"/>
<path d="M-319-2008.1l-25-43h-16.6v43h-13.7v-105.1h33.9c7.9,0,14.7,1.4,20.1,4.1c5.5,2.7,9.6,6.4,12.3,11c2.7,4.6,4.1,9.9,4.1,15.8
	c0,7.2-2.1,13.6-6.3,19.2c-4.2,5.5-10.4,9.2-18.8,11l26.4,44H-319z M-360.7-2062.1h20.2c7.4,0,13-1.8,16.7-5.5
	c3.7-3.7,5.6-8.6,5.6-14.7c0-6.3-1.8-11.3-5.4-14.8c-3.6-3.5-9.3-5.3-16.9-5.3h-20.2V-2062.1z"/>
<g>
	<path class="st1" d="M-552.8-2100.1l-0.6-0.5c-2.5-2.1-5.1-4-7.6-5.5l0,0l0,0c-26.6-16.7-52.2-6.2-52.2-6.2
		c-34,12.2-35.6,49.9-35.6,49.9s51.3-15.8,52-16c0.7-0.1,0.3,0.9,0.3,0.9l-21.6,10.4l-129.9,55.3l-44.3,17.2l106.4-50l-0.2-1.6
		c-5.9-35.7,12.1-62.6,12.1-62.6c28.7-49.2,81.7-46.2,81.7-46.2c39.4,0.6,61.6,21.8,69.9,31.7l0,0c2.2,2.6,3.4,4.5,3.7,4.9l0.1,0.1
		l0,0"/>
	<path class="st1" d="M-511.3-2016.1L-511.3-2016.1c0,0.1,0,0.1,0,0.1c0,0,0,0.1,0,0.1c0,0.1,0,0.1,0,0.2c0,0,0,0,0,0.1
		c-0.6,1-2.7,4.2-6,8.5c-0.1,0.2-0.2,0.3-0.3,0.4c-1.7,2.2-3.7,4.6-6,7.2c0,0,0,0,0,0s0,0,0,0c-3.9,4.3-8.7,8.9-14.1,13.1
		c-0.7,0.5-1.4,1-2.1,1.5c-0.2,0.2-0.5,0.3-0.7,0.5c-0.5,0.3-0.9,0.6-1.4,1c-0.1,0.1-0.3,0.2-0.4,0.3c-1.1,0.7-2.2,1.4-3.3,2.1
		c-0.6,0.3-1.2,0.7-1.8,1c0,0,0,0,0,0c-0.1,0-0.4,0.2-1,0.6c-0.1,0.1-0.3,0.2-0.5,0.2c-0.6,0.3-1.2,0.6-1.8,0.9
		c-0.2,0.1-0.4,0.2-0.6,0.3c-0.1,0.1-0.2,0.1-0.3,0.1c-2.6,1.2-5.3,2.2-8.1,3.1c0,0-2.8,1.5-7.8,3.1c0,0-0.1,0-0.1,0
		c-12.5,4.1-38.6,8.9-69.1-7c0,0-30-16.8-41.9-42.2c0,0-51.1,17.7-55.6,16.5l24-13.1l64-28.9l99.5-41l134.2-52.4l-142.7,63.6
		l-87.1,39.7c0,0,13.5,28.1,47.7,30.2c0,0,27.8-0.4,43.3-18.2c0,0,0,0,0,0c0.8-1,1.6-2,2.4-3c0,0,0,0,0,0"/>
	<path class="st1" d="M-561.1-2106.2L-561.1-2106.2l8.2,6.1c32.3,11.5,34.1-18.2,34.1-18.2l0,0l-3.7-5l0,0"/>
	<path class="st1" d="M-549.1-2027.6C-549.1-2027.6-549.1-2027.6-549.1-2027.6c0,0,7.1-5.4,15.7-5.8c0.3,0,0.6,0,1,0
		c0,0,0.1,0,0.1,0c0.2,0,0.5,0,0.7,0c5.3,0.2,10.9,2.5,15.8,9.1c0.2,0.2,0.4,0.5,0.5,0.7c0.1,0.2,0.3,0.4,0.4,0.6
		c1.3,1.9,2.4,4,3.5,6.5c0,0,0,0.1,0,0.1c0,0,0,0.1,0,0.1v0c0,0,0,0.1,0,0.1c0,0,0,0,0,0.1c0,0,0,0.1,0,0.1c0,0.1,0,0.1,0,0.2
		c-0.9,1.3-4.8,6.9-6,8.6c-0.1,0.2-0.2,0.3-0.3,0.4"/>
	<path class="st1" d="M-567.8-1971.7C-567.7-1971.7-567.7-1971.7-567.8-1971.7c5.9-1.5,12.3-4.4,16.2-6.4c0.2-0.1,0.4-0.2,0.6-0.3
		c0.9-0.5,1.7-0.9,2.3-1.2c0.6-0.3,1-0.5,1-0.6c0,0,0,0,0,0c9.6-5.3,17.7-12.7,23.8-19.5"/>
	<path class="st1" d="M-551.5-2024.6C-551.5-2024.6-551.5-2024.6-551.5-2024.6c0.3-0.5,4.3-8.6,18.1-8.8c0.3,0,0.6,0,1,0
		c0,0,0.1,0,0.1,0c7.7,0.1,13.1,4.7,16.5,9.2c0.2,0.2,0.4,0.5,0.5,0.7c2.3,3.2,3.6,6.1,4,7.1c0,0.1,0,0.2,0,0.3v0c0,0.1,0,0.1,0,0.1
		c0,0.1,0,0.1-0.1,0.2c0,0,0,0,0,0.1c0,0.1,0,0.1,0,0.1c-1,2-5.4,9.9-12.4,16c0,0,0,0,0,0"/>
</g>
<g>
	<text transform="matrix(1 0 0 1 1393.0005 -459.1494)" class="st3" style="font-family:'Poppins-Regular'; font-size:162.5836px;">CRONCORE</text>
	<g>
		<path class="st3" d="M1954.3-963.8l-1.3-1.1c-5.6-4.7-11.3-8.8-16.9-12.3l-0.1-0.1l-0.1-0.1c-59.1-37.1-115.9-13.8-115.9-13.8
			c-75.6,27.1-79,110.9-79,110.9s114-35.2,115.5-35.5c1.5-0.3,0.7,2,0.7,2l-48.1,23.2l-288.6,122.9l-98.4,38.3l236.4-111.2l-0.5-3.6
			c-13.1-79.4,26.9-139.1,26.9-139.1c63.8-109.3,181.4-102.8,181.4-102.8c87.6,1.4,136.9,48.4,155.3,70.5l0.1,0.1
			c4.9,5.9,7.5,9.9,8.2,10.9l0.1,0.2l0,0.1"/>
		<path class="st3" d="M2046.7-777.2L2046.7-777.2c0,0.1,0,0.2,0,0.3c0,0.1,0,0.1-0.1,0.2c0,0.1,0,0.2-0.1,0.3c0,0.1,0,0.1,0,0.1
			c-1.4,2.2-6,9.4-13.4,18.9c-0.3,0.4-0.5,0.7-0.7,0.9c-3.8,4.9-8.3,10.3-13.4,16c0,0,0,0-0.1,0.1c0,0-0.1,0.1-0.1,0.1
			c-8.7,9.6-19.2,19.8-31.3,29c-1.5,1.1-3,2.3-4.6,3.4c-0.5,0.4-1.1,0.8-1.6,1.1c-1,0.7-2.1,1.4-3.1,2.1c-0.3,0.2-0.7,0.4-1,0.7
			c-2.4,1.6-4.8,3.1-7.3,4.6c-1.3,0.8-2.7,1.6-4,2.3c0,0,0,0,0,0c-0.1,0.1-0.9,0.5-2.3,1.3c-0.3,0.2-0.7,0.3-1,0.5
			c-1.3,0.7-2.7,1.4-4,2c-0.4,0.2-0.9,0.4-1.3,0.6c-0.2,0.1-0.4,0.2-0.7,0.3c-5.8,2.7-11.8,5-17.9,6.8c0,0-6.2,3.3-17.3,7
			c-0.1,0-0.1,0-0.2,0.1c-27.7,9.1-85.7,19.7-153.5-15.6c0,0-66.6-37.4-93.1-93.8c0,0-113.5,39.4-123.5,36.7l53.3-29.2l142.3-64.3
			l221-91.2l298.1-116.4l-317.1,141.3l-193.5,88.2c0,0,30,62.3,106,67.1c0,0,61.8-0.8,96.1-40.5c0,0,0,0,0-0.1
			c1.8-2.1,3.6-4.3,5.3-6.7c0,0,0,0,0.1,0"/>
		<path class="st3" d="M1936-977.3L1936-977.3l18.3,13.5c71.7,25.6,75.8-40.5,75.8-40.5l0-0.1l-8.3-11.1l-0.1-0.1"/>
		<path class="st3" d="M1962.7-802.6C1962.7-802.7,1962.6-802.7,1962.7-802.6c-0.1,0,15.8-12.1,35-12.9c0.7,0,1.4,0,2.2,0
			c0.1,0,0.2,0,0.3,0c0.5,0,1.1,0,1.6,0.1c11.7,0.5,24.2,5.7,35.1,20.3c0.4,0.5,0.8,1.1,1.2,1.6c0.3,0.5,0.6,0.9,0.9,1.3
			c2.8,4.1,5.4,8.9,7.9,14.5c0,0.1,0,0.2,0,0.3c0,0.1,0,0.1,0,0.2v0c0,0.1,0,0.1,0,0.2c0,0,0,0.1,0,0.1c0,0.1,0,0.1-0.1,0.1
			c0,0.1,0,0.2-0.1,0.3c-2,2.9-10.7,15.3-13.4,19.1c-0.3,0.4-0.5,0.7-0.7,0.9"/>
		<path class="st3" d="M1921.1-678.4c0.1,0,0.1,0,0.2-0.1c12.8-3.3,27-9.7,35.9-14.1c0.5-0.2,0.9-0.4,1.3-0.6c2.1-1,3.8-1.9,5.1-2.6
			c1.4-0.7,2.2-1.2,2.3-1.3c0,0,0,0,0,0c21.4-11.8,39.4-28.3,53-43.2"/>
		<path class="st3" d="M1957.4-795.9C1957.4-795.9,1957.4-795.9,1957.4-795.9c0.6-1.2,9.6-19.2,40.3-19.6c0.7,0,1.4,0,2.2,0
			c0.1,0,0.2,0,0.3,0c17.2,0.3,29.1,10.6,36.7,20.4c0.4,0.5,0.8,1.1,1.2,1.6c5.1,7.1,8,13.6,8.8,15.7c0,0.2,0,0.4-0.1,0.6v0
			c0,0.1,0,0.2,0,0.3c0,0.2-0.1,0.3-0.1,0.5c0,0.1,0,0.1,0,0.1c0,0.1,0,0.2-0.1,0.3c-2.3,4.5-11.9,21.9-27.5,35.5
			c0,0-0.1,0.1-0.1,0.1"/>
	</g>
</g>
<g>
	<text transform="matrix(1 0 0 1 89.0005 -459.1494)" style="font-family:'Poppins-Regular'; font-size:162.5836px;">CRONCORE</text>
	<g>
		<path d="M650.3-963.8l-1.3-1.1c-5.6-4.7-11.3-8.8-16.9-12.3l-0.1-0.1l-0.1-0.1c-59.1-37.1-115.9-13.8-115.9-13.8
			c-75.6,27.1-79,110.9-79,110.9s114-35.2,115.5-35.5c1.5-0.3,0.7,2,0.7,2l-48.1,23.2L216.6-767.7l-98.4,38.3l236.4-111.2l-0.5-3.6
			C341-923.6,381-983.2,381-983.2c63.8-109.3,181.4-102.8,181.4-102.8c87.6,1.4,136.9,48.4,155.3,70.5l0.1,0.1
			c4.9,5.9,7.5,9.9,8.2,10.9l0.1,0.2l0,0.1"/>
		<path d="M742.7-777.2L742.7-777.2c0,0.1,0,0.2,0,0.3s0,0.1-0.1,0.2c0,0.1,0,0.2-0.1,0.3c0,0.1,0,0.1,0,0.1
			c-1.4,2.2-6,9.4-13.4,18.9c-0.3,0.4-0.5,0.7-0.7,0.9c-3.8,4.9-8.3,10.3-13.4,16c0,0,0,0-0.1,0.1s-0.1,0.1-0.1,0.1
			c-8.7,9.6-19.2,19.8-31.3,29c-1.5,1.1-3,2.3-4.6,3.4c-0.5,0.4-1.1,0.8-1.6,1.1c-1,0.7-2.1,1.4-3.1,2.1c-0.3,0.2-0.7,0.4-1,0.7
			c-2.4,1.6-4.8,3.1-7.3,4.6c-1.3,0.8-2.7,1.6-4,2.3c0,0,0,0,0,0c-0.1,0.1-0.9,0.5-2.3,1.3c-0.3,0.2-0.7,0.3-1,0.5
			c-1.3,0.7-2.7,1.4-4,2c-0.4,0.2-0.9,0.4-1.3,0.6c-0.2,0.1-0.4,0.2-0.7,0.3c-5.8,2.7-11.8,5-17.9,6.8c0,0-6.2,3.3-17.3,7
			c-0.1,0-0.1,0-0.2,0.1c-27.7,9.1-85.7,19.7-153.5-15.6c0,0-66.6-37.4-93.1-93.8c0,0-113.5,39.4-123.5,36.7l53.3-29.2l142.3-64.3
			l221-91.2l298.1-116.4L644.7-910.8l-193.5,88.2c0,0,30,62.3,106,67.1c0,0,61.8-0.8,96.1-40.5c0,0,0,0,0-0.1
			c1.8-2.1,3.6-4.3,5.3-6.7c0,0,0,0,0.1,0"/>
		<path d="M632-977.3L632-977.3l18.3,13.5c71.7,25.6,75.8-40.5,75.8-40.5l0-0.1l-8.3-11.1l-0.1-0.1"/>
		<path d="M658.7-802.6C658.7-802.7,658.6-802.7,658.7-802.6c-0.1,0,15.8-12.1,35-12.9c0.7,0,1.4,0,2.2,0c0.1,0,0.2,0,0.3,0
			c0.5,0,1.1,0,1.6,0.1c11.7,0.5,24.2,5.7,35.1,20.3c0.4,0.5,0.8,1.1,1.2,1.6c0.3,0.5,0.6,0.9,0.9,1.3c2.8,4.1,5.4,8.9,7.9,14.5
			c0,0.1,0,0.2,0,0.3c0,0.1,0,0.1,0,0.2v0c0,0.1,0,0.1,0,0.2c0,0,0,0.1,0,0.1c0,0.1,0,0.1-0.1,0.1c0,0.1,0,0.2-0.1,0.3
			c-2,2.9-10.7,15.3-13.4,19.1c-0.3,0.4-0.5,0.7-0.7,0.9"/>
		<path d="M617.1-678.4c0.1,0,0.1,0,0.2-0.1c12.8-3.3,27-9.7,35.9-14.1c0.5-0.2,0.9-0.4,1.3-0.6c2.1-1,3.8-1.9,5.1-2.6
			c1.4-0.7,2.2-1.2,2.3-1.3c0,0,0,0,0,0c21.4-11.8,39.4-28.3,53-43.2"/>
		<path d="M653.4-795.9C653.4-795.9,653.4-795.9,653.4-795.9c0.6-1.2,9.6-19.2,40.3-19.6c0.7,0,1.4,0,2.2,0c0.1,0,0.2,0,0.3,0
			c17.2,0.3,29.1,10.6,36.7,20.4c0.4,0.5,0.8,1.1,1.2,1.6c5.1,7.1,8,13.6,8.8,15.7c0,0.2,0,0.4-0.1,0.6v0c0,0.1,0,0.2,0,0.3
			c0,0.2-0.1,0.3-0.1,0.5c0,0.1,0,0.1,0,0.1c0,0.1,0,0.2-0.1,0.3c-2.3,4.5-11.9,21.9-27.5,35.5c0,0-0.1,0.1-0.1,0.1"/>
	</g>
</g>
<g>
	<path class="st1" d="M-551.5,466.1l-1.5-1.3c-6.5-5.5-13.1-10.2-19.6-14.3l-0.1-0.1l-0.1-0.1c-68.8-43.2-134.9-16.1-134.9-16.1
		c-88.1,31.6-92,129.1-92,129.1s132.7-41,134.4-41.3c1.8-0.3,0.8,2.3,0.8,2.3l-56,27l-336,143L-1171,739l275.2-129.4l-0.6-4.2
		c-15.3-92.4,31.3-161.9,31.3-161.9c74.3-127.3,211.2-119.6,211.2-119.6c102,1.6,159.4,56.4,180.8,82.1l0.1,0.1
		c5.7,6.8,8.8,11.6,9.5,12.7l0.1,0.2l0,0.1"/>
	<path class="st1" d="M-444,683.3L-444,683.3c0,0.1,0,0.2,0,0.3c0,0.1,0,0.2-0.1,0.3c0,0.1,0,0.3-0.1,0.4c0,0.1,0,0.1,0,0.2
		c-1.6,2.6-7,11-15.6,22.1c-0.3,0.4-0.6,0.8-0.8,1c-4.4,5.7-9.6,12-15.6,18.6c0,0,0,0-0.1,0.1c0,0-0.1,0.1-0.1,0.1
		c-10.1,11.2-22.4,23.1-36.5,33.8c-1.7,1.3-3.5,2.6-5.4,3.9c-0.6,0.5-1.3,0.9-1.9,1.3c-1.2,0.8-2.4,1.7-3.6,2.5
		c-0.4,0.3-0.8,0.5-1.1,0.8c-2.8,1.8-5.6,3.6-8.5,5.3c-1.5,0.9-3.1,1.8-4.7,2.7c0,0,0,0,0,0c-0.1,0.1-1.1,0.6-2.7,1.5
		c-0.4,0.2-0.8,0.4-1.2,0.6c-1.5,0.8-3.1,1.6-4.7,2.3c-0.5,0.3-1,0.5-1.5,0.7c-0.3,0.1-0.5,0.3-0.8,0.4c-6.7,3.1-13.7,5.8-20.9,7.9
		c0,0-7.2,3.9-20.1,8.1c-0.1,0-0.2,0-0.2,0.1c-32.3,10.5-99.8,23-178.7-18.1c0,0-77.5-43.5-108.4-109.2c0,0-132.1,45.8-143.8,42.8
		l62.1-34l165.7-74.8L-536,498.8l347-135.5l-369.1,164.5l-225.3,102.7c0,0,34.9,72.6,123.4,78.2c0,0,72-0.9,111.9-47.1
		c0,0,0,0,0-0.1c2.1-2.5,4.2-5.1,6.1-7.8c0,0,0,0,0.1,0"/>
	<path class="st1" d="M-572.9,450.4l0.1,0.1l21.2,15.7c83.5,29.8,88.3-47.1,88.3-47.1l0-0.1L-473,406l-0.1-0.1"/>
	<path class="st1" d="M-541.8,653.7C-541.8,653.7-541.9,653.7-541.8,653.7c-0.1,0,18.3-14.1,40.7-15c0.8,0,1.6,0,2.5,0
		c0.1,0,0.2,0,0.3,0c0.6,0,1.2,0,1.9,0.1c13.6,0.6,28.2,6.6,40.8,23.7c0.5,0.6,0.9,1.3,1.4,1.9c0.4,0.5,0.7,1,1,1.5
		c3.2,4.8,6.3,10.4,9.2,16.9c0,0.1,0,0.2,0,0.3c0,0.1,0,0.2,0,0.3v0c0,0.1,0,0.2,0,0.2c0,0,0,0.1,0,0.1c0,0.1,0,0.1-0.1,0.2
		c0,0.1,0,0.3-0.1,0.4c-2.4,3.4-12.4,17.8-15.6,22.2c-0.3,0.4-0.6,0.8-0.8,1"/>
	<path class="st1" d="M-590.2,798.3c0.1,0,0.2,0,0.2-0.1c14.9-3.9,31.5-11.3,41.8-16.4c0.5-0.2,1-0.5,1.5-0.7c2.4-1.2,4.4-2.2,5.9-3
		c1.6-0.9,2.6-1.4,2.7-1.5c0,0,0,0,0,0c24.9-13.8,45.9-32.9,61.7-50.3"/>
	<path class="st1" d="M-548,661.5C-548,661.5-548,661.5-548,661.5c0.7-1.4,11.2-22.3,46.9-22.8c0.8,0,1.6,0,2.5,0c0.1,0,0.2,0,0.3,0
		c20,0.4,33.9,12.3,42.7,23.7c0.5,0.6,0.9,1.3,1.4,1.9c6,8.2,9.3,15.9,10.2,18.3c0,0.2,0,0.5-0.1,0.7v0c0,0.1,0,0.2,0,0.4
		c0,0.2-0.1,0.4-0.1,0.6c0,0.1,0,0.1,0,0.2c0,0.1,0,0.2-0.1,0.4c-2.7,5.2-13.9,25.5-32,41.3c0,0-0.1,0.1-0.1,0.1"/>
</g>
<g>
	<path d="M687.5,466.1l-1.5-1.3c-6.5-5.5-13.1-10.2-19.6-14.3l-0.1-0.1l-0.1-0.1c-68.8-43.2-134.9-16.1-134.9-16.1
		c-88.1,31.6-92,129.1-92,129.1s132.7-41,134.4-41.3c1.8-0.3,0.8,2.3,0.8,2.3l-56,27l-336,143L68,739l275.2-129.4l-0.6-4.2
		c-15.3-92.4,31.3-161.9,31.3-161.9c74.3-127.3,211.2-119.6,211.2-119.6c102,1.6,159.4,56.4,180.8,82.1l0.1,0.1
		c5.7,6.8,8.8,11.6,9.5,12.7l0.1,0.2l0,0.1"/>
	<path d="M795,683.3L795,683.3c0,0.1,0,0.2,0,0.3c0,0.1,0,0.2-0.1,0.3c0,0.1,0,0.3-0.1,0.4c0,0.1,0,0.1,0,0.2
		c-1.6,2.6-7,11-15.6,22.1c-0.3,0.4-0.6,0.8-0.8,1c-4.4,5.7-9.6,12-15.6,18.6c0,0,0,0-0.1,0.1c0,0-0.1,0.1-0.1,0.1
		c-10.1,11.2-22.4,23.1-36.5,33.8c-1.7,1.3-3.5,2.6-5.4,3.9c-0.6,0.5-1.3,0.9-1.9,1.3c-1.2,0.8-2.4,1.7-3.6,2.5
		c-0.4,0.3-0.8,0.5-1.1,0.8c-2.8,1.8-5.6,3.6-8.5,5.3c-1.5,0.9-3.1,1.8-4.7,2.7c0,0,0,0,0,0c-0.1,0.1-1.1,0.6-2.7,1.5
		c-0.4,0.2-0.8,0.4-1.2,0.6c-1.5,0.8-3.1,1.6-4.7,2.3c-0.5,0.3-1,0.5-1.5,0.7c-0.3,0.1-0.5,0.3-0.8,0.4c-6.7,3.1-13.7,5.8-20.9,7.9
		c0,0-7.2,3.9-20.1,8.1c-0.1,0-0.2,0-0.2,0.1c-32.3,10.5-99.8,23-178.7-18.1c0,0-77.5-43.5-108.4-109.2c0,0-132.1,45.8-143.8,42.8
		l62.1-34l165.7-74.8L703,498.8l347-135.5L680.9,527.8L455.6,630.5c0,0,34.9,72.6,123.4,78.2c0,0,72-0.9,111.9-47.1c0,0,0,0,0-0.1
		c2.1-2.5,4.2-5.1,6.1-7.8c0,0,0,0,0.1,0"/>
	<path d="M666.1,450.4l0.1,0.1l21.2,15.7c83.5,29.8,88.3-47.1,88.3-47.1l0-0.1L766,406l-0.1-0.1"/>
	<path d="M697.2,653.7C697.2,653.7,697.1,653.7,697.2,653.7c-0.1,0,18.3-14.1,40.7-15c0.8,0,1.6,0,2.5,0c0.1,0,0.2,0,0.3,0
		c0.6,0,1.2,0,1.9,0.1c13.6,0.6,28.2,6.6,40.8,23.7c0.5,0.6,0.9,1.3,1.4,1.9c0.4,0.5,0.7,1,1,1.5c3.2,4.8,6.3,10.4,9.2,16.9
		c0,0.1,0,0.2,0,0.3c0,0.1,0,0.2,0,0.3v0c0,0.1,0,0.2,0,0.2c0,0,0,0.1,0,0.1c0,0.1,0,0.1-0.1,0.2c0,0.1,0,0.3-0.1,0.4
		c-2.4,3.4-12.4,17.8-15.6,22.2c-0.3,0.4-0.6,0.8-0.8,1"/>
	<path d="M648.8,798.3c0.1,0,0.2,0,0.2-0.1c14.9-3.9,31.5-11.3,41.8-16.4c0.5-0.2,1-0.5,1.5-0.7c2.4-1.2,4.4-2.2,5.9-3
		c1.6-0.9,2.6-1.4,2.7-1.5c0,0,0,0,0,0c24.9-13.8,45.9-32.9,61.7-50.3"/>
	<path d="M691,661.5C691,661.5,691,661.5,691,661.5c0.7-1.4,11.2-22.3,46.9-22.8c0.8,0,1.6,0,2.5,0c0.1,0,0.2,0,0.3,0
		c20,0.4,33.9,12.3,42.7,23.7c0.5,0.6,0.9,1.3,1.4,1.9c6,8.2,9.3,15.9,10.2,18.3c0,0.2,0,0.5-0.1,0.7v0c0,0.1,0,0.2,0,0.4
		c0,0.2-0.1,0.4-0.1,0.6c0,0.1,0,0.1,0,0.2c0,0.1,0,0.2-0.1,0.4c-2.7,5.2-13.9,25.5-32,41.3c0,0-0.1,0.1-0.1,0.1"/>
</g>
<g>
	<path class="st3" d="M1972.5,466.1l-1.5-1.3c-6.5-5.5-13.1-10.2-19.6-14.3l-0.1-0.1l-0.1-0.1c-68.8-43.2-134.9-16.1-134.9-16.1
		c-88.1,31.6-92,129.1-92,129.1s132.7-41,134.4-41.3c1.8-0.3,0.8,2.3,0.8,2.3l-56,27l-336,143L1353,739l275.2-129.4l-0.6-4.2
		c-15.3-92.4,31.3-161.9,31.3-161.9c74.3-127.3,211.2-119.6,211.2-119.6c102,1.6,159.4,56.4,180.8,82.1l0.1,0.1
		c5.7,6.8,8.8,11.6,9.5,12.7l0.1,0.2l0,0.1"/>
	<path class="st3" d="M2080,683.3L2080,683.3c0,0.1,0,0.2,0,0.3s0,0.2-0.1,0.3c0,0.1,0,0.3-0.1,0.4c0,0.1,0,0.1,0,0.2
		c-1.6,2.6-7,11-15.6,22.1c-0.3,0.4-0.6,0.8-0.8,1c-4.4,5.7-9.6,12-15.6,18.6c0,0,0,0-0.1,0.1s-0.1,0.1-0.1,0.1
		c-10.1,11.2-22.4,23.1-36.5,33.8c-1.7,1.3-3.5,2.6-5.4,3.9c-0.6,0.5-1.3,0.9-1.9,1.3c-1.2,0.8-2.4,1.7-3.6,2.5
		c-0.4,0.3-0.8,0.5-1.1,0.8c-2.8,1.8-5.6,3.6-8.5,5.3c-1.5,0.9-3.1,1.8-4.7,2.7c0,0,0,0,0,0c-0.1,0.1-1.1,0.6-2.7,1.5
		c-0.4,0.2-0.8,0.4-1.2,0.6c-1.5,0.8-3.1,1.6-4.7,2.3c-0.5,0.3-1,0.5-1.5,0.7c-0.3,0.1-0.5,0.3-0.8,0.4c-6.7,3.1-13.7,5.8-20.9,7.9
		c0,0-7.2,3.9-20.1,8.1c-0.1,0-0.2,0-0.2,0.1c-32.3,10.5-99.8,23-178.7-18.1c0,0-77.5-43.5-108.4-109.2c0,0-132.1,45.8-143.8,42.8
		l62.1-34l165.7-74.8L1988,498.8l347-135.5l-369.1,164.5l-225.3,102.7c0,0,34.9,72.6,123.4,78.2c0,0,72-0.9,111.9-47.1
		c0,0,0,0,0-0.1c2.1-2.5,4.2-5.1,6.1-7.8c0,0,0,0,0.1,0"/>
	<path class="st3" d="M1951.1,450.4l0.1,0.1l21.2,15.7c83.5,29.8,88.3-47.1,88.3-47.1l0-0.1L2051,406l-0.1-0.1"/>
	<path class="st3" d="M1982.2,653.7C1982.2,653.7,1982.1,653.7,1982.2,653.7c-0.1,0,18.3-14.1,40.7-15c0.8,0,1.6,0,2.5,0
		c0.1,0,0.2,0,0.3,0c0.6,0,1.2,0,1.9,0.1c13.6,0.6,28.2,6.6,40.8,23.7c0.5,0.6,0.9,1.3,1.4,1.9c0.4,0.5,0.7,1,1,1.5
		c3.2,4.8,6.3,10.4,9.2,16.9c0,0.1,0,0.2,0,0.3c0,0.1,0,0.2,0,0.3v0c0,0.1,0,0.2,0,0.2c0,0,0,0.1,0,0.1c0,0.1,0,0.1-0.1,0.2
		c0,0.1,0,0.3-0.1,0.4c-2.4,3.4-12.4,17.8-15.6,22.2c-0.3,0.4-0.6,0.8-0.8,1"/>
	<path class="st3" d="M1933.8,798.3c0.1,0,0.2,0,0.2-0.1c14.9-3.9,31.5-11.3,41.8-16.4c0.5-0.2,1-0.5,1.5-0.7c2.4-1.2,4.4-2.2,5.9-3
		c1.6-0.9,2.6-1.4,2.7-1.5c0,0,0,0,0,0c24.9-13.8,45.9-32.9,61.7-50.3"/>
	<path class="st3" d="M1976,661.5C1976,661.5,1976,661.5,1976,661.5c0.7-1.4,11.2-22.3,46.9-22.8c0.8,0,1.6,0,2.5,0
		c0.1,0,0.2,0,0.3,0c20,0.4,33.9,12.3,42.7,23.7c0.5,0.6,0.9,1.3,1.4,1.9c6,8.2,9.3,15.9,10.2,18.3c0,0.2,0,0.5-0.1,0.7v0
		c0,0.1,0,0.2,0,0.4c0,0.2-0.1,0.4-0.1,0.6c0,0.1,0,0.1,0,0.2c0,0.1,0,0.2-0.1,0.4c-2.7,5.2-13.9,25.5-32,41.3c0,0-0.1,0.1-0.1,0.1"
		/>
</g>
<g>
	<text transform="matrix(1 0 0 1 -1130.9995 -459.1494)" style="font-family:'Poppins-Regular'; font-size:162.5836px;">CRONCORE</text>
	<g>
		<path class="st1" d="M-569.7-963.8l-1.3-1.1c-5.6-4.7-11.3-8.8-16.9-12.3l-0.1-0.1l-0.1-0.1c-59.1-37.1-115.9-13.8-115.9-13.8
			c-75.6,27.1-79,110.9-79,110.9s114-35.2,115.5-35.5c1.5-0.3,0.7,2,0.7,2l-48.1,23.2l-288.6,122.9l-98.4,38.3l236.4-111.2l-0.5-3.6
			C-879-923.6-839-983.2-839-983.2c63.8-109.3,181.4-102.8,181.4-102.8c87.6,1.4,136.9,48.4,155.3,70.5l0.1,0.1
			c4.9,5.9,7.5,9.9,8.2,10.9l0.1,0.2l0,0.1"/>
		<path class="st1" d="M-477.3-777.2L-477.3-777.2c0,0.1,0,0.2,0,0.3s0,0.1-0.1,0.2c0,0.1,0,0.2-0.1,0.3c0,0.1,0,0.1,0,0.1
			c-1.4,2.2-6,9.4-13.4,18.9c-0.3,0.4-0.5,0.7-0.7,0.9c-3.8,4.9-8.3,10.3-13.4,16c0,0,0,0-0.1,0.1c0,0-0.1,0.1-0.1,0.1
			c-8.7,9.6-19.2,19.8-31.3,29c-1.5,1.1-3,2.3-4.6,3.4c-0.5,0.4-1.1,0.8-1.6,1.1c-1,0.7-2.1,1.4-3.1,2.1c-0.3,0.2-0.7,0.4-1,0.7
			c-2.4,1.6-4.8,3.1-7.3,4.6c-1.3,0.8-2.7,1.6-4,2.3c0,0,0,0,0,0c-0.1,0.1-0.9,0.5-2.3,1.3c-0.3,0.2-0.7,0.3-1,0.5
			c-1.3,0.7-2.7,1.4-4,2c-0.4,0.2-0.9,0.4-1.3,0.6c-0.2,0.1-0.4,0.2-0.7,0.3c-5.8,2.7-11.8,5-17.9,6.8c0,0-6.2,3.3-17.3,7
			c-0.1,0-0.1,0-0.2,0.1c-27.7,9.1-85.7,19.7-153.5-15.6c0,0-66.6-37.4-93.1-93.8c0,0-113.5,39.4-123.5,36.7l53.3-29.2l142.3-64.3
			l221-91.2l298.1-116.4l-317.1,141.3l-193.5,88.2c0,0,30,62.3,106,67.1c0,0,61.8-0.8,96.1-40.5c0,0,0,0,0-0.1
			c1.8-2.1,3.6-4.3,5.3-6.7c0,0,0,0,0.1,0"/>
		<path class="st1" d="M-588-977.3L-588-977.3l18.3,13.5c71.7,25.6,75.8-40.5,75.8-40.5l0-0.1l-8.3-11.1l-0.1-0.1"/>
		<path class="st1" d="M-561.3-802.6C-561.3-802.7-561.4-802.7-561.3-802.6c-0.1,0,15.8-12.1,35-12.9c0.7,0,1.4,0,2.2,0
			c0.1,0,0.2,0,0.3,0c0.5,0,1.1,0,1.6,0.1c11.7,0.5,24.2,5.7,35.1,20.3c0.4,0.5,0.8,1.1,1.2,1.6c0.3,0.5,0.6,0.9,0.9,1.3
			c2.8,4.1,5.4,8.9,7.9,14.5c0,0.1,0,0.2,0,0.3c0,0.1,0,0.1,0,0.2v0c0,0.1,0,0.1,0,0.2c0,0,0,0.1,0,0.1c0,0.1,0,0.1-0.1,0.1
			c0,0.1,0,0.2-0.1,0.3c-2,2.9-10.7,15.3-13.4,19.1c-0.3,0.4-0.5,0.7-0.7,0.9"/>
		<path class="st1" d="M-602.9-678.4c0.1,0,0.1,0,0.2-0.1c12.8-3.3,27-9.7,35.9-14.1c0.5-0.2,0.9-0.4,1.3-0.6c2.1-1,3.8-1.9,5.1-2.6
			c1.4-0.7,2.2-1.2,2.3-1.3c0,0,0,0,0,0c21.4-11.8,39.4-28.3,53-43.2"/>
		<path class="st1" d="M-566.6-795.9C-566.6-795.9-566.6-795.9-566.6-795.9c0.6-1.2,9.6-19.2,40.3-19.6c0.7,0,1.4,0,2.2,0
			c0.1,0,0.2,0,0.3,0c17.2,0.3,29.1,10.6,36.7,20.4c0.4,0.5,0.8,1.1,1.2,1.6c5.1,7.1,8,13.6,8.8,15.7c0,0.2,0,0.4-0.1,0.6v0
			c0,0.1,0,0.2,0,0.3c0,0.2-0.1,0.3-0.1,0.5c0,0.1,0,0.1,0,0.1c0,0.1,0,0.2-0.1,0.3c-2.3,4.5-11.9,21.9-27.5,35.5
			c0,0-0.1,0.1-0.1,0.1"/>
	</g>
</g>
<path d="M-269-2102.5v36.1h38.3v10.6H-269v37h42.8v10.9h-56.6v-105.3h56.6v10.9H-269z"/>
<g>
	<path class="st3" d="M1397.1-2056.4c4.6-8.2,10.9-14.6,18.9-19.2c8-4.6,16.9-6.9,26.6-6.9c11.5,0,21.5,2.8,30,8.3
		c8.5,5.5,14.8,13.4,18.7,23.5h-16.4c-2.9-6.1-7.1-10.9-12.6-14.3c-5.5-3.4-12-5.1-19.7-5.1c-7.3,0-13.9,1.7-19.8,5.1
		c-5.8,3.4-10.4,8.2-13.7,14.5c-3.3,6.3-5,13.5-5,21.8s1.7,15.5,5,21.7c3.3,6.2,7.9,11,13.7,14.4c5.8,3.4,12.4,5.1,19.8,5.1
		c7.6,0,14.2-1.7,19.7-5c5.5-3.3,9.7-8,12.6-14.2h16.4c-3.9,10.1-10.2,17.8-18.7,23.3c-8.5,5.5-18.6,8.2-30,8.2
		c-9.8,0-18.6-2.3-26.6-6.9c-8-4.6-14.3-10.9-18.9-19.1c-4.6-8.1-6.9-17.3-6.9-27.6C1390.1-2039,1392.5-2048.2,1397.1-2056.4z"/>
	<path class="st3" d="M1567.1-1976.1l-25-43h-16.6v43h-13.7v-105.1h33.9c7.9,0,14.7,1.4,20.1,4.1c5.5,2.7,9.6,6.4,12.3,11
		c2.7,4.6,4.1,9.9,4.1,15.8c0,7.2-2.1,13.6-6.3,19.2c-4.2,5.5-10.4,9.2-18.8,11l26.4,44H1567.1z M1525.4-2030.1h20.2
		c7.4,0,13-1.8,16.7-5.5c3.7-3.7,5.6-8.6,5.6-14.7c0-6.3-1.8-11.3-5.4-14.8c-3.6-3.5-9.3-5.3-16.9-5.3h-20.2V-2030.1z"/>
	<path class="st3" d="M1624.4-1981.9c-8-4.6-14.4-11-19.1-19.2c-4.7-8.2-7-17.4-7-27.7c0-10.3,2.3-19.5,7-27.7
		c4.7-8.2,11-14.6,19.1-19.2c8-4.6,16.9-6.9,26.7-6.9c9.9,0,18.8,2.3,26.8,6.9c8,4.6,14.4,10.9,19,19.1c4.6,8.1,6.9,17.4,6.9,27.8
		s-2.3,19.6-6.9,27.8c-4.6,8.1-11,14.5-19,19.1c-8,4.6-17,6.9-26.8,6.9C1641.3-1975,1632.4-1977.3,1624.4-1981.9z M1670.9-1992.5
		c5.9-3.4,10.5-8.2,13.9-14.5c3.4-6.2,5.1-13.5,5.1-21.7s-1.7-15.5-5.1-21.8c-3.4-6.3-8-11.1-13.9-14.5c-5.9-3.4-12.5-5.1-19.8-5.1
		c-7.3,0-14,1.7-19.8,5.1c-5.9,3.4-10.5,8.2-13.9,14.5c-3.4,6.3-5.1,13.5-5.1,21.8s1.7,15.5,5.1,21.7c3.4,6.2,8,11.1,13.9,14.5
		c5.9,3.4,12.5,5.1,19.8,5.1C1658.4-1987.4,1665-1989.1,1670.9-1992.5z"/>
	<path class="st3" d="M1804.6-1976.1h-13.7l-55.2-83.7v83.7H1722v-105.3h13.7l55.2,83.6v-83.6h13.7V-1976.1z"/>
	<path class="st3" d="M2052-1981.9c-8-4.6-14.4-11-19.1-19.2c-4.7-8.2-7-17.4-7-27.7c0-10.3,2.3-19.5,7-27.7
		c4.7-8.2,11-14.6,19.1-19.2c8-4.6,16.9-6.9,26.7-6.9c9.9,0,18.8,2.3,26.8,6.9c8,4.6,14.4,10.9,19,19.1c4.6,8.1,6.9,17.4,6.9,27.8
		s-2.3,19.6-6.9,27.8c-4.6,8.1-11,14.5-19,19.1c-8,4.6-17,6.9-26.8,6.9C2069-1975,2060.1-1977.3,2052-1981.9z M2098.5-1992.5
		c5.9-3.4,10.5-8.2,13.9-14.5c3.4-6.2,5.1-13.5,5.1-21.7s-1.7-15.5-5.1-21.8c-3.4-6.3-8-11.1-13.9-14.5c-5.9-3.4-12.5-5.1-19.8-5.1
		c-7.3,0-14,1.7-19.8,5.1c-5.9,3.4-10.5,8.2-13.9,14.5c-3.4,6.3-5.1,13.5-5.1,21.8s1.7,15.5,5.1,21.7c3.4,6.2,8,11.1,13.9,14.5
		c5.9,3.4,12.5,5.1,19.8,5.1C2086-1987.4,2092.7-1989.1,2098.5-1992.5z"/>
	<path class="st3" d="M2205-1976.1l-25-43h-16.6v43h-13.7v-105.1h33.9c7.9,0,14.7,1.4,20.1,4.1c5.5,2.7,9.6,6.4,12.3,11
		c2.7,4.6,4.1,9.9,4.1,15.8c0,7.2-2.1,13.6-6.3,19.2c-4.2,5.5-10.4,9.2-18.8,11l26.4,44H2205z M2163.3-2030.1h20.2
		c7.4,0,13-1.8,16.7-5.5c3.7-3.7,5.6-8.6,5.6-14.7c0-6.3-1.8-11.3-5.4-14.8c-3.6-3.5-9.3-5.3-16.9-5.3h-20.2V-2030.1z"/>
	<g>
		<path class="st4" d="M1971.2-2068.1l-0.6-0.5c-2.5-2.1-5.1-4-7.6-5.5l0,0l0,0c-26.6-16.7-52.2-6.2-52.2-6.2
			c-34,12.2-35.6,49.9-35.6,49.9s51.3-15.8,52-16c0.7-0.1,0.3,0.9,0.3,0.9l-21.6,10.4l-129.9,55.3l-44.3,17.2l106.4-50l-0.2-1.6
			c-5.9-35.7,12.1-62.6,12.1-62.6c28.7-49.2,81.7-46.2,81.7-46.2c39.4,0.6,61.6,21.8,69.9,31.7l0,0c2.2,2.6,3.4,4.5,3.7,4.9l0.1,0.1
			l0,0"/>
		<path class="st4" d="M2012.7-1984.1L2012.7-1984.1c0,0.1,0,0.1,0,0.1c0,0,0,0.1,0,0.1c0,0.1,0,0.1,0,0.2c0,0,0,0,0,0.1
			c-0.6,1-2.7,4.2-6,8.5c-0.1,0.2-0.2,0.3-0.3,0.4c-1.7,2.2-3.7,4.6-6,7.2c0,0,0,0,0,0s0,0,0,0c-3.9,4.3-8.7,8.9-14.1,13.1
			c-0.7,0.5-1.4,1-2.1,1.5c-0.2,0.2-0.5,0.3-0.7,0.5c-0.5,0.3-0.9,0.6-1.4,1c-0.1,0.1-0.3,0.2-0.4,0.3c-1.1,0.7-2.2,1.4-3.3,2.1
			c-0.6,0.3-1.2,0.7-1.8,1c0,0,0,0,0,0c-0.1,0-0.4,0.2-1,0.6c-0.1,0.1-0.3,0.2-0.5,0.2c-0.6,0.3-1.2,0.6-1.8,0.9
			c-0.2,0.1-0.4,0.2-0.6,0.3c-0.1,0.1-0.2,0.1-0.3,0.1c-2.6,1.2-5.3,2.2-8.1,3.1c0,0-2.8,1.5-7.8,3.1c0,0-0.1,0-0.1,0
			c-12.5,4.1-38.6,8.9-69.1-7c0,0-30-16.8-41.9-42.2c0,0-51.1,17.7-55.6,16.5l24-13.1l64-28.9l99.5-41l134.2-52.4l-142.7,63.6
			l-87.1,39.7c0,0,13.5,28.1,47.7,30.2c0,0,27.8-0.4,43.3-18.2c0,0,0,0,0,0c0.8-1,1.6-2,2.4-3c0,0,0,0,0,0"/>
		<path class="st4" d="M1962.9-2074.2L1962.9-2074.2l8.2,6.1c32.3,11.5,34.1-18.2,34.1-18.2l0,0l-3.7-5l0,0"/>
		<path class="st4" d="M1974.9-1995.6C1974.9-1995.6,1974.9-1995.6,1974.9-1995.6c0,0,7.1-5.4,15.7-5.8c0.3,0,0.6,0,1,0
			c0,0,0.1,0,0.1,0c0.2,0,0.5,0,0.7,0c5.3,0.2,10.9,2.5,15.8,9.1c0.2,0.2,0.4,0.5,0.5,0.7c0.1,0.2,0.3,0.4,0.4,0.6
			c1.3,1.9,2.4,4,3.5,6.5c0,0,0,0.1,0,0.1c0,0,0,0.1,0,0.1v0c0,0,0,0.1,0,0.1c0,0,0,0,0,0.1c0,0,0,0.1,0,0.1c0,0.1,0,0.1,0,0.2
			c-0.9,1.3-4.8,6.9-6,8.6c-0.1,0.2-0.2,0.3-0.3,0.4"/>
		<path class="st4" d="M1956.2-1939.7C1956.3-1939.7,1956.3-1939.7,1956.2-1939.7c5.9-1.5,12.3-4.4,16.2-6.4
			c0.2-0.1,0.4-0.2,0.6-0.3c0.9-0.5,1.7-0.9,2.3-1.2c0.6-0.3,1-0.5,1-0.6c0,0,0,0,0,0c9.6-5.3,17.7-12.7,23.8-19.5"/>
		<path class="st4" d="M1972.5-1992.6C1972.5-1992.6,1972.5-1992.6,1972.5-1992.6c0.3-0.5,4.3-8.6,18.1-8.8c0.3,0,0.6,0,1,0
			c0,0,0.1,0,0.1,0c7.7,0.1,13.1,4.7,16.5,9.2c0.2,0.2,0.4,0.5,0.5,0.7c2.3,3.2,3.6,6.1,4,7.1c0,0.1,0,0.2,0,0.3v0
			c0,0.1,0,0.1,0,0.1c0,0.1,0,0.1-0.1,0.2c0,0,0,0,0,0.1c0,0.1,0,0.1,0,0.1c-1,2-5.4,9.9-12.4,16c0,0,0,0,0,0"/>
	</g>
	<path class="st3" d="M2255-2070.5v36.1h38.3v10.6H2255v37h42.8v10.9h-56.6v-105.3h56.6v10.9H2255z"/>
</g>
<g>
	<path d="M93.1-2080.4c4.6-8.2,10.9-14.6,18.9-19.2c8-4.6,16.9-6.9,26.6-6.9c11.5,0,21.5,2.8,30,8.3c8.5,5.5,14.8,13.4,18.7,23.5
		h-16.4c-2.9-6.1-7.1-10.9-12.6-14.3c-5.5-3.4-12-5.1-19.7-5.1c-7.3,0-13.9,1.7-19.8,5.1c-5.8,3.4-10.4,8.2-13.7,14.5
		c-3.3,6.3-5,13.5-5,21.8s1.7,15.5,5,21.7c3.3,6.2,7.9,11,13.7,14.4c5.8,3.4,12.4,5.1,19.8,5.1c7.6,0,14.2-1.7,19.7-5
		c5.5-3.3,9.7-8,12.6-14.2h16.4c-3.9,10.1-10.2,17.8-18.7,23.3c-8.5,5.5-18.6,8.2-30,8.2c-9.8,0-18.6-2.3-26.6-6.9
		c-8-4.6-14.3-10.9-18.9-19.1c-4.6-8.1-6.9-17.3-6.9-27.6C86.1-2063,88.5-2072.2,93.1-2080.4z"/>
	<path d="M263.1-2000.1l-25-43h-16.6v43h-13.7v-105.1h33.9c7.9,0,14.7,1.4,20.1,4.1c5.5,2.7,9.6,6.4,12.3,11
		c2.7,4.6,4.1,9.9,4.1,15.8c0,7.2-2.1,13.6-6.3,19.2c-4.2,5.5-10.4,9.2-18.8,11l26.4,44H263.1z M221.4-2054.1h20.2
		c7.4,0,13-1.8,16.7-5.5c3.7-3.7,5.6-8.6,5.6-14.7c0-6.3-1.8-11.3-5.4-14.8c-3.6-3.5-9.3-5.3-16.9-5.3h-20.2V-2054.1z"/>
	<path d="M320.4-2005.9c-8-4.6-14.4-11-19.1-19.2c-4.7-8.2-7-17.4-7-27.7c0-10.3,2.3-19.5,7-27.7c4.7-8.2,11-14.6,19.1-19.2
		c8-4.6,16.9-6.9,26.7-6.9c9.9,0,18.8,2.3,26.8,6.9c8,4.6,14.4,10.9,19,19.1c4.6,8.1,6.9,17.4,6.9,27.8s-2.3,19.6-6.9,27.8
		c-4.6,8.1-11,14.5-19,19.1c-8,4.6-17,6.9-26.8,6.9C337.3-1999,328.4-2001.3,320.4-2005.9z M366.9-2016.5
		c5.9-3.4,10.5-8.2,13.9-14.5c3.4-6.2,5.1-13.5,5.1-21.7s-1.7-15.5-5.1-21.8s-8-11.1-13.9-14.5c-5.9-3.4-12.5-5.1-19.8-5.1
		c-7.3,0-14,1.7-19.8,5.1c-5.9,3.4-10.5,8.2-13.9,14.5c-3.4,6.3-5.1,13.5-5.1,21.8s1.7,15.5,5.1,21.7c3.4,6.2,8,11.1,13.9,14.5
		c5.9,3.4,12.5,5.1,19.8,5.1C354.4-2011.4,361-2013.1,366.9-2016.5z"/>
	<path d="M500.6-2000.1h-13.7l-55.2-83.7v83.7H418v-105.3h13.7l55.2,83.6v-83.6h13.7V-2000.1z"/>
	<path d="M748-2005.9c-8-4.6-14.4-11-19.1-19.2c-4.7-8.2-7-17.4-7-27.7c0-10.3,2.3-19.5,7-27.7c4.7-8.2,11-14.6,19.1-19.2
		c8-4.6,16.9-6.9,26.7-6.9c9.9,0,18.8,2.3,26.8,6.9c8,4.6,14.4,10.9,19,19.1c4.6,8.1,6.9,17.4,6.9,27.8s-2.3,19.6-6.9,27.8
		c-4.6,8.1-11,14.5-19,19.1c-8,4.6-17,6.9-26.8,6.9C765-1999,756.1-2001.3,748-2005.9z M794.5-2016.5c5.9-3.4,10.5-8.2,13.9-14.5
		c3.4-6.2,5.1-13.5,5.1-21.7s-1.7-15.5-5.1-21.8s-8-11.1-13.9-14.5c-5.9-3.4-12.5-5.1-19.8-5.1c-7.3,0-14,1.7-19.8,5.1
		c-5.9,3.4-10.5,8.2-13.9,14.5s-5.1,13.5-5.1,21.8s1.7,15.5,5.1,21.7c3.4,6.2,8,11.1,13.9,14.5c5.9,3.4,12.5,5.1,19.8,5.1
		C782-2011.4,788.7-2013.1,794.5-2016.5z"/>
	<path d="M901-2000.1l-25-43h-16.6v43h-13.7v-105.1h33.9c7.9,0,14.7,1.4,20.1,4.1c5.5,2.7,9.6,6.4,12.3,11c2.7,4.6,4.1,9.9,4.1,15.8
		c0,7.2-2.1,13.6-6.3,19.2c-4.2,5.5-10.4,9.2-18.8,11l26.4,44H901z M859.3-2054.1h20.2c7.4,0,13-1.8,16.7-5.5
		c3.7-3.7,5.6-8.6,5.6-14.7c0-6.3-1.8-11.3-5.4-14.8c-3.6-3.5-9.3-5.3-16.9-5.3h-20.2V-2054.1z"/>
	<g>
		<path class="st2" d="M667.2-2092.1l-0.6-0.5c-2.5-2.1-5.1-4-7.6-5.5l0,0l0,0c-26.6-16.7-52.2-6.2-52.2-6.2
			c-34,12.2-35.6,49.9-35.6,49.9s51.3-15.8,52-16c0.7-0.1,0.3,0.9,0.3,0.9l-21.6,10.4L472-2003.9l-44.3,17.2l106.4-50l-0.2-1.6
			c-5.9-35.7,12.1-62.6,12.1-62.6c28.7-49.2,81.7-46.2,81.7-46.2c39.4,0.6,61.6,21.8,69.9,31.7l0,0c2.2,2.6,3.4,4.5,3.7,4.9l0.1,0.1
			l0,0"/>
		<path class="st2" d="M708.7-2008.1L708.7-2008.1c0,0.1,0,0.1,0,0.1c0,0,0,0.1,0,0.1c0,0.1,0,0.1,0,0.2c0,0,0,0,0,0.1
			c-0.6,1-2.7,4.2-6,8.5c-0.1,0.2-0.2,0.3-0.3,0.4c-1.7,2.2-3.7,4.6-6,7.2c0,0,0,0,0,0s0,0,0,0c-3.9,4.3-8.7,8.9-14.1,13.1
			c-0.7,0.5-1.4,1-2.1,1.5c-0.2,0.2-0.5,0.3-0.7,0.5c-0.5,0.3-0.9,0.6-1.4,1c-0.1,0.1-0.3,0.2-0.4,0.3c-1.1,0.7-2.2,1.4-3.3,2.1
			c-0.6,0.3-1.2,0.7-1.8,1c0,0,0,0,0,0c-0.1,0-0.4,0.2-1,0.6c-0.1,0.1-0.3,0.2-0.5,0.2c-0.6,0.3-1.2,0.6-1.8,0.9
			c-0.2,0.1-0.4,0.2-0.6,0.3c-0.1,0.1-0.2,0.1-0.3,0.1c-2.6,1.2-5.3,2.2-8.1,3.1c0,0-2.8,1.5-7.8,3.1c0,0-0.1,0-0.1,0
			c-12.5,4.1-38.6,8.9-69.1-7c0,0-30-16.8-41.9-42.2c0,0-51.1,17.7-55.6,16.5l24-13.1l64-28.9l99.5-41l134.2-52.4l-142.7,63.6
			l-87.1,39.7c0,0,13.5,28.1,47.7,30.2c0,0,27.8-0.4,43.3-18.2c0,0,0,0,0,0c0.8-1,1.6-2,2.4-3c0,0,0,0,0,0"/>
		<path class="st2" d="M658.9-2098.2L658.9-2098.2l8.2,6.1c32.3,11.5,34.1-18.2,34.1-18.2l0,0l-3.7-5l0,0"/>
		<path class="st2" d="M670.9-2019.6C670.9-2019.6,670.9-2019.6,670.9-2019.6c0,0,7.1-5.4,15.7-5.8c0.3,0,0.6,0,1,0c0,0,0.1,0,0.1,0
			c0.2,0,0.5,0,0.7,0c5.3,0.2,10.9,2.5,15.8,9.1c0.2,0.2,0.4,0.5,0.5,0.7c0.1,0.2,0.3,0.4,0.4,0.6c1.3,1.9,2.4,4,3.5,6.5
			c0,0,0,0.1,0,0.1c0,0,0,0.1,0,0.1v0c0,0,0,0.1,0,0.1c0,0,0,0,0,0.1c0,0,0,0.1,0,0.1c0,0.1,0,0.1,0,0.2c-0.9,1.3-4.8,6.9-6,8.6
			c-0.1,0.2-0.2,0.3-0.3,0.4"/>
		<path class="st2" d="M652.2-1963.7C652.3-1963.7,652.3-1963.7,652.2-1963.7c5.9-1.5,12.3-4.4,16.2-6.4c0.2-0.1,0.4-0.2,0.6-0.3
			c0.9-0.5,1.7-0.9,2.3-1.2c0.6-0.3,1-0.5,1-0.6c0,0,0,0,0,0c9.6-5.3,17.7-12.7,23.8-19.5"/>
		<path class="st2" d="M668.5-2016.6C668.5-2016.6,668.5-2016.6,668.5-2016.6c0.3-0.5,4.3-8.6,18.1-8.8c0.3,0,0.6,0,1,0
			c0,0,0.1,0,0.1,0c7.7,0.1,13.1,4.7,16.5,9.2c0.2,0.2,0.4,0.5,0.5,0.7c2.3,3.2,3.6,6.1,4,7.1c0,0.1,0,0.2,0,0.3v0
			c0,0.1,0,0.1,0,0.1c0,0.1,0,0.1-0.1,0.2c0,0,0,0,0,0.1c0,0.1,0,0.1,0,0.1c-1,2-5.4,9.9-12.4,16c0,0,0,0,0,0"/>
	</g>
	<path d="M951-2094.5v36.1h38.3v10.6H951v37h42.8v10.9h-56.6v-105.3h56.6v10.9H951z"/>
</g>
<rect x="-1220" y="-2703" class="st1" width="1080" height="84"/>
<rect x="-1220" y="-1415" class="st1" width="1080" height="84"/>
<rect x="-1220" y="-108" class="st1" width="1080" height="84"/>
</svg>
